<svg width="30" height="30" viewBox="0 0 30 30" fill="none" xmlns="http://www.w3.org/2000/svg">
<path d="M29.4937 12.3739L15.9903 0.373125C15.7165 0.132631 15.3645 0 15 0C14.6355 0 14.2835 0.132631 14.0097 0.373125L0.50628 12.3739C0.276775 12.5769 0.114931 12.8452 0.0425099 13.1429C-0.0299116 13.4406 -0.00943874 13.7533 0.101176 14.039C0.209981 14.3209 0.40141 14.5634 0.650391 14.7347C0.899371 14.906 1.1943 14.9982 1.49653 14.9991H2.99692V28.4999C2.99692 28.8978 3.155 29.2793 3.43637 29.5606C3.71775 29.842 4.09938 30 4.4973 30H25.5027C25.9006 30 26.2823 29.842 26.5636 29.5606C26.845 29.2793 27.0031 28.8978 27.0031 28.4999V14.9991H28.5035C28.8057 14.9982 29.1006 14.906 29.3496 14.7347C29.5986 14.5634 29.79 14.3209 29.8988 14.039C30.0094 13.7533 30.0299 13.4406 29.9575 13.1429C29.8851 12.8452 29.7232 12.5769 29.4937 12.3739ZM16.5004 26.9998H13.4996V22.4995C13.4996 22.1017 13.6577 21.7201 13.9391 21.4388C14.2204 21.1575 14.6021 20.9994 15 20.9994C15.3979 20.9994 15.7796 21.1575 16.0609 21.4388C16.3423 21.7201 16.5004 22.1017 16.5004 22.4995V26.9998ZM24.0023 26.9998H19.5012V22.4995C19.5012 21.306 19.0269 20.1613 18.1828 19.3173C17.3387 18.4734 16.1938 17.9992 15 17.9992C13.8062 17.9992 12.6613 18.4734 11.8172 19.3173C10.9731 20.1613 10.4988 21.306 10.4988 22.4995V26.9998H5.99769V14.9991H24.0023V26.9998ZM5.44255 11.9989L15 3.50832L24.5575 11.9989H5.44255Z" fill="black"/>
</svg>
